<svg xmlns="http://www.w3.org/2000/svg" width="31" height="31" fill="none" viewBox="0 0 31 31"><rect width="30" height="31" x=".433" fill="#183B56" rx="10"/><g clip-path="url(#clip0)"><path fill="#fff" d="M15.4312 6L15.3002 6.43285V18.9933L15.4312 19.1204L21.4294 15.6741L15.4312 6Z"/><path fill="#C9D6E7" d="M15.4313 6L9.43311 15.6741L15.4313 19.1204V13.024V6Z"/><path fill="#9FB2C1" fill-opacity=".8" d="M15.4312 20.2244L15.3574 20.3119V24.7862L15.4312 24.9958L21.4331 16.7798L15.4312 20.2244Z"/><path fill="#C9D6E7" d="M15.4313 24.9958V20.2244L9.43311 16.7798L15.4313 24.9958Z"/><path fill="#BAC3DA" d="M15.4313 19.1203L21.4294 15.674L15.4313 13.0239V19.1203Z"/><path fill="#fff" d="M9.43311 15.674L15.4312 19.1203V13.0239L9.43311 15.674Z"/></g><defs><clipPath id="clip0"><rect width="12" height="19" fill="#fff" transform="translate(9.43311 6)"/></clipPath></defs></svg>